<svg width="255" height="108" viewBox="0 0 255 108" fill="none" xmlns="http://www.w3.org/2000/svg">
<rect x="2" y="2" width="251" height="104" rx="22" fill="#060B16" stroke="#0A1122" stroke-width="4"/>
<rect x="130.165" width="120.835" height="108" rx="20" fill="#0A1122"/>
<path d="M34.6362 60.5273H24.0307V52.5879H34.6362C36.0815 52.5879 37.2534 52.3438 38.1518 51.8555C39.0502 51.3672 39.7045 50.6934 40.1147 49.834C40.5444 48.9551 40.7592 47.9688 40.7592 46.875C40.7592 45.7031 40.5444 44.6191 40.1147 43.623C39.7045 42.627 39.0502 41.8262 38.1518 41.2207C37.2534 40.5957 36.0815 40.2832 34.6362 40.2832H27.8979V75H17.6147V32.3438H34.6362C38.0541 32.3438 40.9936 32.9688 43.4545 34.2188C45.935 35.4688 47.8393 37.1875 49.1674 39.375C50.4955 41.543 51.1596 44.0234 51.1596 46.8164C51.1596 49.5703 50.4955 51.9727 49.1674 54.0234C47.8393 56.0742 45.935 57.6758 43.4545 58.8281C40.9936 59.9609 38.0541 60.5273 34.6362 60.5273ZM66.6576 30V75H56.7553V30H66.6576ZM89.2162 67.0312V53.9648C89.2162 53.0664 89.0893 52.2949 88.8354 51.6504C88.5815 51.0059 88.1811 50.5078 87.6342 50.1562C87.0873 49.7852 86.3549 49.5996 85.4369 49.5996C84.6948 49.5996 84.06 49.7266 83.5326 49.9805C83.0053 50.2344 82.6049 50.6152 82.3315 51.123C82.058 51.6309 81.9213 52.2754 81.9213 53.0566H72.0483C72.0483 51.5918 72.3705 50.2344 73.0151 48.9844C73.6791 47.7148 74.6166 46.6113 75.8276 45.6738C77.058 44.7363 78.5229 44.0137 80.2221 43.5059C81.9409 42.9785 83.8549 42.7148 85.9643 42.7148C88.4838 42.7148 90.7299 43.1348 92.7026 43.9746C94.6948 44.8145 96.267 46.0742 97.4194 47.7539C98.5717 49.4141 99.1479 51.5039 99.1479 54.0234V67.002C99.1479 69.0723 99.2651 70.6445 99.4994 71.7188C99.7338 72.7734 100.066 73.7012 100.496 74.502V75H90.5932C90.1244 74.0234 89.7729 72.832 89.5385 71.4258C89.3237 70 89.2162 68.5352 89.2162 67.0312ZM90.4174 55.6348L90.476 60.9082H86.1108C85.1928 60.9082 84.4116 61.0352 83.767 61.2891C83.142 61.543 82.6342 61.8945 82.2436 62.3438C81.8725 62.7734 81.5991 63.2617 81.4233 63.8086C81.267 64.3555 81.1889 64.9316 81.1889 65.5371C81.1889 66.123 81.3256 66.6504 81.5991 67.1191C81.892 67.5684 82.2826 67.9199 82.7709 68.1738C83.2592 68.4277 83.8061 68.5547 84.4116 68.5547C85.5053 68.5547 86.433 68.3496 87.1948 67.9395C87.976 67.5098 88.5717 66.9922 88.9819 66.3867C89.392 65.7812 89.5971 65.2148 89.5971 64.6875L91.7651 68.7305C91.3744 69.5117 90.9252 70.3027 90.4174 71.1035C89.9291 71.9043 89.3139 72.6465 88.5717 73.3301C87.8491 73.9941 86.9604 74.541 85.9057 74.9707C84.851 75.3809 83.5717 75.5859 82.0678 75.5859C80.1147 75.5859 78.3178 75.1855 76.6772 74.3848C75.0561 73.584 73.7573 72.4707 72.7807 71.0449C71.8041 69.5996 71.3159 67.9395 71.3159 66.0645C71.3159 64.4238 71.6088 62.959 72.1948 61.6699C72.8002 60.3809 73.7084 59.2871 74.9194 58.3887C76.1303 57.4902 77.6733 56.8066 79.5483 56.3379C81.4233 55.8691 83.6303 55.6348 86.1694 55.6348H90.4174ZM121.326 43.3008V50.1562H102.224V43.3008H121.326ZM106.238 35.4199H116.111V64.6582C116.111 65.498 116.208 66.1523 116.404 66.6211C116.599 67.0703 116.931 67.3926 117.4 67.5879C117.888 67.7637 118.533 67.8516 119.333 67.8516C119.9 67.8516 120.369 67.8418 120.74 67.8223C121.111 67.7832 121.462 67.7344 121.794 67.6758V74.7363C120.955 75.0098 120.076 75.2148 119.158 75.3516C118.24 75.5078 117.263 75.5859 116.228 75.5859C114.119 75.5859 112.312 75.2539 110.808 74.5898C109.324 73.9258 108.191 72.8809 107.41 71.4551C106.628 70.0293 106.238 68.1738 106.238 65.8887V35.4199Z" fill="white"/>
<path d="M155.799 29.9707V75H145.925V29.9707H155.799ZM176.072 43.3008L162.302 59.4434L155.095 66.6504L150.789 60.3809L156.795 52.5586L164.236 43.3008H176.072ZM165.496 75L157.029 60.5566L164.324 55.3711L176.804 75H165.496ZM193.416 75.5859C190.838 75.5859 188.533 75.1855 186.502 74.3848C184.47 73.5645 182.752 72.4414 181.345 71.0156C179.959 69.5898 178.894 67.9492 178.152 66.0938C177.429 64.2383 177.068 62.2754 177.068 60.2051V59.0918C177.068 56.7676 177.39 54.6191 178.035 52.6465C178.679 50.6543 179.636 48.916 180.906 47.4316C182.175 45.9473 183.767 44.7949 185.681 43.9746C187.595 43.1348 189.822 42.7148 192.361 42.7148C194.607 42.7148 196.619 43.0762 198.396 43.7988C200.174 44.5215 201.677 45.5566 202.908 46.9043C204.158 48.252 205.105 49.8828 205.75 51.7969C206.414 53.7109 206.746 55.8594 206.746 58.2422V62.2559H180.847V56.0742H197.107V55.3125C197.127 54.2578 196.941 53.3594 196.55 52.6172C196.179 51.875 195.633 51.3086 194.91 50.918C194.187 50.5273 193.308 50.332 192.273 50.332C191.199 50.332 190.31 50.5664 189.607 51.0352C188.924 51.5039 188.386 52.1484 187.996 52.9688C187.625 53.7695 187.361 54.6973 187.205 55.752C187.049 56.8066 186.97 57.9199 186.97 59.0918V60.2051C186.97 61.377 187.127 62.4414 187.439 63.3984C187.771 64.3555 188.24 65.1758 188.845 65.8594C189.47 66.5234 190.213 67.041 191.072 67.4121C191.951 67.7832 192.947 67.9688 194.06 67.9688C195.408 67.9688 196.736 67.7148 198.045 67.207C199.353 66.6992 200.476 65.8594 201.414 64.6875L205.896 70.0195C205.252 70.9375 204.334 71.8262 203.142 72.6855C201.97 73.5449 200.564 74.248 198.924 74.7949C197.283 75.3223 195.447 75.5859 193.416 75.5859ZM220.076 71.2793L228.279 43.3008H238.884L226.14 79.7168C225.867 80.5176 225.506 81.377 225.056 82.2949C224.607 83.2324 223.992 84.1211 223.211 84.9609C222.429 85.8008 221.424 86.4844 220.193 87.0117C218.982 87.5391 217.478 87.8027 215.681 87.8027C214.724 87.8027 214.021 87.7539 213.572 87.6562C213.142 87.5781 212.478 87.4316 211.58 87.2168V80.1562C211.834 80.1562 212.049 80.1562 212.224 80.1562C212.42 80.1562 212.634 80.1562 212.869 80.1562C213.924 80.1562 214.763 80.0488 215.388 79.834C216.033 79.6191 216.521 79.3066 216.853 78.8965C217.205 78.4863 217.478 77.9883 217.674 77.4023L220.076 71.2793ZM217.996 43.3008L224.236 65.4785L225.32 75.9375H218.699L207.42 43.3008H217.996Z" fill="#98CA3F"/>
</svg>
